<?xml version="1.0" encoding="UTF-8" standalone="no"?>
<!DOCTYPE svg PUBLIC "-//W3C//DTD SVG 1.1//EN" "http://www.w3.org/Graphics/SVG/1.1/DTD/svg11.dtd">
<svg width="100%" height="100%" viewBox="0 0 500 500" version="1.1" xmlns="http://www.w3.org/2000/svg" xmlns:xlink="http://www.w3.org/1999/xlink" xml:space="preserve" xmlns:serif="http://www.serif.com/" style="fill-rule:evenodd;clip-rule:evenodd;stroke-linejoin:round;stroke-miterlimit:1.41421;">
    <g transform="matrix(27.7762,0,0,27.7762,-13.8603,-27.7762)">
        <path d="M16.8,15.101C15.656,14.242 15,12.929 15,11.5L15,8.5C15,5.987 13.306,3.862 11,3.208L11,2.5C11,1.673 10.327,1 9.5,1C8.673,1 8,1.673 8,2.5L8,3.208C5.694,3.863 4,5.987 4,8.5L4,11.5C4,12.929 3.344,14.241 2.2,15.101C2.028,15.23 1.958,15.455 2.026,15.659C2.094,15.863 2.285,16.001 2.5,16.001L7.05,16.001C7.017,16.165 6.999,16.332 6.999,16.501C6.999,17.879 8.121,19.001 9.499,19.001C10.877,19.001 11.999,17.879 11.999,16.501C11.999,16.333 11.982,16.165 11.949,16.001L16.499,16.001C16.714,16.001 16.905,15.863 16.973,15.659C17.041,15.455 16.971,15.23 16.799,15.101L16.8,15.101ZM9,2.5C9,2.224 9.224,2 9.5,2C9.776,2 10,2.224 10,2.5L10,3.023C9.835,3.008 9.669,3 9.5,3C9.331,3 9.165,3.008 9,3.023L9,2.5ZM11,16.5C11,17.327 10.327,18 9.5,18C8.673,18 8,17.327 8,16.5C8,16.329 8.03,16.16 8.086,16L10.914,16C10.97,16.16 11,16.329 11,16.5ZM3.742,15C3.997,14.691 4.219,14.354 4.401,13.999C4.799,13.221 5,12.38 5,11.5L5,8.5C5,6.019 7.019,4 9.5,4C11.981,4 14,6.019 14,8.5L14,11.5C14,12.38 14.202,13.221 14.599,13.999C14.781,14.355 15.003,14.691 15.258,15L3.741,15L3.742,15Z" style="fill-rule:nonzero;"/>
    </g>
</svg>
