<svg xmlns="http://www.w3.org/2000/svg" xmlns:xlink="http://www.w3.org/1999/xlink" width="1080" zoomAndPan="magnify" viewBox="0 0 810 809.999993" height="1080" preserveAspectRatio="xMidYMid meet" version="1.0"><defs><clipPath id="id1"><path d="M 287.4375 714.261719 L 302.4375 714.261719 L 302.4375 730.011719 L 287.4375 730.011719 Z M 287.4375 714.261719 " clip-rule="nonzero"/></clipPath><clipPath id="id2"><path d="M 81 713.957031 L 96.75 713.957031 L 96.75 729.707031 L 81 729.707031 Z M 81 713.957031 " clip-rule="nonzero"/></clipPath><clipPath id="id3"><path d="M 572.09375 714.570312 L 587.84375 714.570312 L 587.84375 730.320312 L 572.09375 730.320312 Z M 572.09375 714.570312 " clip-rule="nonzero"/></clipPath><clipPath id="id4"><path d="M 86.113281 280 L 723.613281 280 L 723.613281 432 L 86.113281 432 Z M 86.113281 280 " clip-rule="nonzero"/></clipPath><clipPath id="id5"><path d="M 118 431 L 692 431 L 692 782.320312 L 118 782.320312 Z M 118 431 " clip-rule="nonzero"/></clipPath><clipPath id="id6"><path d="M 343 431 L 467 431 L 467 782.320312 L 343 782.320312 Z M 343 431 " clip-rule="nonzero"/></clipPath></defs><path fill="#ffffff" d="M 482.25 659.070312 C 482.25 649.015625 474.132812 640.765625 463.953125 640.765625 L 346.359375 640.765625 L 346.359375 640.894531 C 336.570312 641.28125 328.835938 649.273438 328.835938 659.070312 C 328.835938 668.867188 336.699219 676.859375 346.359375 677.246094 L 346.359375 677.375 L 463.953125 677.375 C 474.003906 677.375 482.25 669.125 482.25 659.070312 " fill-opacity="1" fill-rule="nonzero"/><g clip-path="url(#id1)"><path fill="#ffffff" d="M 291.128906 725.019531 L 298.742188 725.019531 L 298.742188 719.257812 L 291.128906 719.257812 Z M 297.601562 719.921875 L 294.9375 722.464844 L 292.273438 719.921875 Z M 291.765625 720.339844 L 294.9375 723.410156 L 298.109375 720.339844 L 298.109375 724.355469 L 291.765625 724.355469 Z M 294.9375 714.269531 C 290.796875 714.269531 287.4375 717.792969 287.4375 722.136719 C 287.4375 726.484375 290.796875 730.007812 294.9375 730.007812 C 299.078125 730.007812 302.4375 726.484375 302.4375 722.136719 C 302.4375 717.789062 299.078125 714.269531 294.9375 714.269531 Z M 294.9375 728.8125 C 291.425781 728.8125 288.578125 725.824219 288.578125 722.136719 C 288.578125 718.453125 291.425781 715.464844 294.9375 715.464844 C 298.449219 715.464844 301.296875 718.453125 301.296875 722.136719 C 301.296875 725.824219 298.449219 728.8125 294.9375 728.8125 Z M 294.9375 728.8125 " fill-opacity="1" fill-rule="nonzero"/></g><path fill="#ffffff" d="M 90.363281 726.417969 C 89.902344 726.320312 88.296875 725.808594 86.71875 723.359375 C 85.140625 720.914062 85.335938 719.238281 85.429688 718.78125 C 85.59375 718.035156 86.785156 717.175781 87.03125 717.226562 L 87.578125 717.34375 C 87.652344 717.359375 87.710938 717.417969 87.722656 717.492188 L 88.121094 719.570312 C 88.136719 719.65625 88.089844 719.738281 88.015625 719.777344 C 87.132812 720.183594 86.84375 720.304688 86.777344 720.589844 C 86.640625 721.210938 88.644531 724.3125 89.261719 724.445312 C 89.554688 724.503906 89.800781 724.300781 90.535156 723.660156 C 90.601562 723.605469 90.695312 723.597656 90.765625 723.648438 L 92.476562 724.859375 C 92.542969 724.902344 92.570312 724.980469 92.554688 725.054688 L 92.4375 725.601562 C 92.382812 725.847656 91.109375 726.578125 90.363281 726.417969 " fill-opacity="1" fill-rule="nonzero"/><g clip-path="url(#id2)"><path fill="#ffffff" d="M 88.875 713.957031 C 84.53125 713.957031 81 717.488281 81 721.832031 C 81 726.175781 84.53125 729.707031 88.875 729.707031 C 93.214844 729.707031 96.75 726.175781 96.75 721.832031 C 96.75 717.488281 93.214844 713.957031 88.875 713.957031 Z M 88.875 715.082031 C 92.601562 715.082031 95.621094 718.105469 95.621094 721.832031 C 95.621094 725.5625 92.601562 728.582031 88.875 728.582031 C 85.148438 728.582031 82.125 725.5625 82.125 721.832031 C 82.125 718.105469 85.148438 715.082031 88.875 715.082031 " fill-opacity="1" fill-rule="nonzero"/></g><path fill="#ffffff" d="M 578.039062 718.972656 C 578.269531 718.539062 578.539062 718.183594 578.84375 717.929688 C 578.574219 717.996094 578.316406 718.085938 578.066406 718.199219 C 578.035156 718.210938 578.007812 718.226562 577.976562 718.238281 C 577.414062 718.507812 576.914062 718.882812 576.503906 719.34375 C 576.898438 719.492188 577.300781 719.617188 577.71875 719.71875 C 577.8125 719.449219 577.921875 719.199219 578.039062 718.972656 " fill-opacity="1" fill-rule="evenodd"/><path fill="#ffffff" d="M 581.910156 719.785156 C 581.824219 719.546875 581.726562 719.320312 581.621094 719.117188 C 581.1875 718.300781 580.605469 717.792969 579.96875 717.792969 C 579.332031 717.792969 578.746094 718.300781 578.3125 719.117188 C 578.207031 719.320312 578.109375 719.546875 578.023438 719.785156 C 578.046875 719.789062 578.074219 719.792969 578.097656 719.800781 C 578.703125 719.917969 579.328125 719.980469 579.96875 719.980469 C 580.605469 719.980469 581.230469 719.917969 581.835938 719.800781 C 581.859375 719.792969 581.886719 719.789062 581.910156 719.785156 " fill-opacity="1" fill-rule="evenodd"/><path fill="#ffffff" d="M 583.429688 719.34375 C 583.019531 718.882812 582.519531 718.507812 581.957031 718.238281 C 581.929688 718.226562 581.90625 718.214844 581.878906 718.203125 C 581.628906 718.089844 581.363281 717.996094 581.089844 717.929688 C 581.394531 718.183594 581.664062 718.539062 581.894531 718.972656 C 582.011719 719.199219 582.121094 719.449219 582.214844 719.71875 C 582.632812 719.617188 583.035156 719.492188 583.429688 719.34375 " fill-opacity="1" fill-rule="evenodd"/><path fill="#ffffff" d="M 584.613281 722.289062 C 584.578125 721.273438 584.21875 720.339844 583.636719 719.589844 C 583.207031 719.761719 582.765625 719.902344 582.3125 720.011719 C 582.515625 720.6875 582.636719 721.464844 582.652344 722.289062 L 584.613281 722.289062 " fill-opacity="1" fill-rule="evenodd"/><path fill="#ffffff" d="M 582.339844 722.289062 C 582.328125 721.484375 582.207031 720.730469 582.007812 720.082031 C 581.972656 720.089844 581.933594 720.097656 581.894531 720.101562 C 581.269531 720.226562 580.625 720.289062 579.96875 720.289062 C 579.308594 720.289062 578.664062 720.226562 578.039062 720.101562 C 578 720.097656 577.964844 720.089844 577.925781 720.082031 C 577.726562 720.730469 577.605469 721.484375 577.59375 722.289062 L 582.339844 722.289062 " fill-opacity="1" fill-rule="evenodd"/><path fill="#ffffff" d="M 577.28125 722.289062 C 577.296875 721.464844 577.417969 720.6875 577.621094 720.011719 C 577.167969 719.902344 576.726562 719.761719 576.296875 719.589844 C 575.714844 720.339844 575.355469 721.273438 575.320312 722.289062 L 577.28125 722.289062 " fill-opacity="1" fill-rule="evenodd"/><path fill="#ffffff" d="M 577.621094 724.878906 C 577.417969 724.203125 577.296875 723.425781 577.28125 722.601562 L 575.320312 722.601562 C 575.355469 723.617188 575.714844 724.546875 576.296875 725.296875 C 576.726562 725.128906 577.167969 724.988281 577.621094 724.878906 " fill-opacity="1" fill-rule="evenodd"/><path fill="#ffffff" d="M 582.007812 724.808594 C 582.207031 724.15625 582.328125 723.40625 582.339844 722.601562 L 577.59375 722.601562 C 577.605469 723.40625 577.726562 724.15625 577.925781 724.808594 C 577.964844 724.800781 578 724.792969 578.039062 724.785156 C 578.664062 724.664062 579.308594 724.601562 579.96875 724.601562 C 580.625 724.601562 581.269531 724.664062 581.894531 724.785156 C 581.933594 724.792969 581.972656 724.800781 582.007812 724.808594 " fill-opacity="1" fill-rule="evenodd"/><path fill="#ffffff" d="M 583.636719 725.296875 C 584.21875 724.546875 584.578125 723.617188 584.613281 722.601562 L 582.652344 722.601562 C 582.636719 723.425781 582.515625 724.203125 582.3125 724.878906 C 582.765625 724.988281 583.207031 725.128906 583.636719 725.296875 " fill-opacity="1" fill-rule="evenodd"/><path fill="#ffffff" d="M 581.621094 725.773438 C 581.726562 725.566406 581.824219 725.34375 581.910156 725.105469 C 581.886719 725.101562 581.859375 725.09375 581.835938 725.089844 C 581.230469 724.972656 580.605469 724.910156 579.96875 724.910156 C 579.328125 724.910156 578.703125 724.972656 578.097656 725.089844 C 578.074219 725.09375 578.046875 725.101562 578.023438 725.105469 C 578.109375 725.34375 578.207031 725.566406 578.3125 725.773438 C 578.746094 726.589844 579.332031 727.097656 579.96875 727.097656 C 580.605469 727.097656 581.1875 726.589844 581.621094 725.773438 " fill-opacity="1" fill-rule="evenodd"/><path fill="#ffffff" d="M 578.84375 726.960938 C 578.539062 726.707031 578.269531 726.351562 578.039062 725.917969 C 577.921875 725.6875 577.8125 725.441406 577.71875 725.171875 C 577.300781 725.273438 576.898438 725.398438 576.503906 725.546875 C 576.914062 726.007812 577.414062 726.382812 577.976562 726.652344 C 578.007812 726.664062 578.035156 726.679688 578.066406 726.691406 C 578.316406 726.804688 578.574219 726.894531 578.84375 726.960938 " fill-opacity="1" fill-rule="evenodd"/><path fill="#ffffff" d="M 581.957031 726.652344 C 582.519531 726.382812 583.019531 726.007812 583.429688 725.546875 C 583.035156 725.398438 582.632812 725.273438 582.214844 725.171875 C 582.121094 725.441406 582.011719 725.6875 581.894531 725.917969 C 581.664062 726.351562 581.394531 726.707031 581.089844 726.960938 C 581.363281 726.894531 581.628906 726.800781 581.878906 726.6875 C 581.90625 726.675781 581.929688 726.664062 581.957031 726.652344 " fill-opacity="1" fill-rule="evenodd"/><g clip-path="url(#id3)"><path fill="#ffffff" d="M 579.96875 714.570312 C 584.316406 714.570312 587.84375 718.097656 587.84375 722.445312 C 587.84375 726.792969 584.316406 730.320312 579.96875 730.320312 C 575.617188 730.320312 572.09375 726.792969 572.09375 722.445312 C 572.09375 718.097656 575.617188 714.570312 579.96875 714.570312 Z M 579.96875 715.441406 C 576.097656 715.441406 572.964844 718.578125 572.964844 722.445312 C 572.964844 726.3125 576.097656 729.449219 579.96875 729.449219 C 583.835938 729.449219 586.96875 726.3125 586.96875 722.445312 C 586.96875 718.578125 583.835938 715.441406 579.96875 715.441406 " fill-opacity="1" fill-rule="evenodd"/></g><path fill="#f8308a" d="M 373.089844 283.757812 C 373.089844 283.757812 194.023438 309.3125 180.894531 253.6875 C 187.441406 225.207031 184.546875 207.515625 201.125 169.6875 C 308.195312 127.753906 383.425781 248.207031 383.425781 248.207031 L 373.089844 283.757812 " fill-opacity="1" fill-rule="nonzero"/><path fill="#f8157b" d="M 373.089844 283.757812 C 373.089844 283.757812 280.867188 125.894531 180.894531 253.6875 C 174.792969 217.136719 179.242188 158.617188 189.820312 122.238281 C 299.617188 27.765625 395.179688 241.449219 395.179688 241.449219 L 373.089844 283.757812 " fill-opacity="1" fill-rule="nonzero"/><path fill="#f8308a" d="M 436.980469 283.757812 C 436.980469 283.757812 616.046875 309.3125 629.175781 253.6875 C 622.628906 225.207031 625.523438 207.515625 608.945312 169.6875 C 501.875 127.753906 426.644531 248.207031 426.644531 248.207031 L 436.980469 283.757812 " fill-opacity="1" fill-rule="nonzero"/><path fill="#f8157b" d="M 436.980469 283.757812 C 436.980469 283.757812 529.238281 125.894531 629.175781 253.6875 C 635.277344 217.136719 630.832031 158.617188 620.25 122.238281 C 510.453125 27.765625 414.890625 241.449219 414.890625 241.449219 L 436.980469 283.757812 " fill-opacity="1" fill-rule="nonzero"/><path fill="#f8157b" d="M 448.457031 274.550781 C 439.667969 287.722656 365.128906 291.277344 362.199219 274.550781 C 359.269531 257.792969 349.035156 211.757812 362.199219 199.273438 C 375.363281 186.792969 436.742188 188.34375 448.457031 199.273438 C 460.140625 210.171875 457.210938 261.378906 448.457031 274.550781 " fill-opacity="1" fill-rule="nonzero"/><g clip-path="url(#id4)"><path fill="#1876f2" d="M 723.636719 431.347656 L 86.433594 431.347656 L 86.433594 280.898438 L 723.636719 280.898438 L 723.636719 431.347656 " fill-opacity="1" fill-rule="nonzero"/></g><g clip-path="url(#id5)"><path fill="#257ff6" d="M 691.414062 782.355469 L 118.65625 782.355469 L 118.65625 431.347656 L 691.414062 431.347656 L 691.414062 782.355469 " fill-opacity="1" fill-rule="nonzero"/></g><path fill="#f8157b" d="M 473.0625 431.347656 L 337.007812 431.347656 L 337.007812 280.898438 L 473.0625 280.898438 L 473.0625 431.347656 " fill-opacity="1" fill-rule="nonzero"/><g clip-path="url(#id6)"><path fill="#f8157b" d="M 466.171875 782.355469 L 343.898438 782.355469 L 343.898438 431.347656 L 466.171875 431.347656 L 466.171875 782.355469 " fill-opacity="1" fill-rule="nonzero"/></g></svg>